PathFileType	4	(X/Y/Z)	10_2_71_p0_0-533_filt_butterworth.trc
DataRate	CameraRate	NumFrames	NumMarkers	Units	OrigDataRate	OrigDataStartFrame	OrigNumFrames
59.0	59.0	5	27	m	59.0	0	533
Frame#	Time	RHip			RKnee			RAnkle			RBigToe			RSmallToe			RHeel			LHip			LKnee			LAnkle			LBigToe			LSmallToe			LHeel			Neck			Head			Nose			RShoulder			RElbow			RWrist			RThumb			RIndex			RPinky			LShoulder			LElbow			LWrist			LThumb			LIndex			LPinky			
		X1	Y1	Z1	X2	Y2	Z2	X3	Y3	Z3	X4	Y4	Z4	X5	Y5	Z5	X6	Y6	Z6	X7	Y7	Z7	X8	Y8	Z8	X9	Y9	Z9	X10	Y10	Z10	X11	Y11	Z11	X12	Y12	Z12	X13	Y13	Z13	X14	Y14	Z14	X15	Y15	Z15	X16	Y16	Z16	X17	Y17	Z17	X18	Y18	Z18	X19	Y19	Z19	X20	Y20	Z20	X21	Y21	Z21	X22	Y22	Z22	X23	Y23	Z23	X24	Y24	Z24	X25	Y25	Z25	X26	Y26	Z26	X27	Y27	Z27	
0	0.0	0.30364825448241806	0.5611140780640084	0.9478453795371378	0.31221332476681146	0.6693216119520378	1.3856777776907583	0.2988198276039241	0.8119407959486269	1.804806398680504	0.2807595845045072	0.6035130446010868	1.8446368643316187	0.33688868805658345	0.676405333591735	1.859280789656422	0.26935994106850264	0.8872406597674435	1.8554568970682677	0.08115194358779482	0.5436515030018969	0.9422824799686287	0.09108884878413251	0.6561417914531902	1.3752565822702563	0.08353659648184311	0.7778970233077688	1.7921860712576143	0.10797704257143392	0.6164229104647446	1.8594744275823283	0.057069208827828684	0.6409037250850035	1.8459623997494083	0.09252741016852764	0.8802697730186956	1.8490878623930769	0.19135465184260927	0.4010199076545856	0.33348862230363424	0.2126354486728826	0.28940785381898787	0.10385376637259966	0.2103180726830277	0.26281902922229566	0.23216935346085263	0.3629977054676346	0.4451736097785659	0.4359780766424991	0.41640060026382036	0.4062695700544458	0.7127298576291676	0.24764956861115353	0.2788976413749839	0.8660599521969794	0.15441637088288349	0.24471637191794945	0.9425479975478877	0.15167014783898336	0.2588944708637786	0.9595327525126218	0.1674341115309111	0.31867347087755427	0.982256336775069	0.04220736631916957	0.41988816527620276	0.4282187526520424	0.002686815654557598	0.3866983195558336	0.7094531371620715	0.13014235278338582	0.30359672565739104	0.8820310392756847	0.21782700704447383	0.2842381840212427	0.9565556452234141	0.20279489855780267	0.2825036789591324	0.9778722982675255	0.17676789701491147	0.2857116330346805	0.9821117225179579
1	0.0169491525423728	0.30596187698647836	0.552817479338806	0.9457264466628155	0.31176070565818736	0.6686010898816878	1.3830931861389515	0.29915436513382215	0.8108351477991201	1.8069610614626663	0.28062018356630347	0.6035423901524652	1.8443090722119047	0.33246613844469475	0.6667886105560956	1.858073743953232	0.2696867269895773	0.8866023182834656	1.8570118907587276	0.081166279219909	0.5436469065669927	0.9422013310398705	0.08947356068393075	0.653546024259176	1.3728894114857075	0.08326108750163917	0.7784950349537049	1.7978908394369706	0.1146172660695611	0.6167356478781236	1.8594942484992238	0.05709433808460605	0.6408804126514961	1.8463113651293148	0.09118357412724667	0.8787817960842264	1.8491824894315112	0.19133875005436052	0.4008499767880508	0.3335074938959277	0.21266692660432931	0.2893489800853174	0.10386508334764752	0.21033828638128774	0.26283404615864303	0.23217925704764242	0.36302257799398596	0.4449483001449417	0.43467482087938003	0.4164785801022859	0.4058865180142378	0.7115083084752044	0.24748863387776932	0.27926802781475174	0.867326996285194	0.15077311246465674	0.24537796470867	0.9436711902637045	0.1497762239799547	0.25965815470854503	0.9620080161226952	0.16694851674585262	0.31920038029456466	0.9842151116492412	0.042273877710832505	0.41983594136838537	0.4281770643518088	0.006419467441330979	0.38277769552220675	0.7110960740952154	0.13065943077185668	0.30279566584196893	0.8829402154747513	0.21178083280334706	0.2783408251137788	0.9553084429378568	0.1987109393915409	0.2742780085302936	0.9771025915274549	0.1761008887844283	0.2821326994640714	0.981627028743233
2	0.0338983050847457	0.3064403603439748	0.5500816172343004	0.9443967690318936	0.3114768366172092	0.6676121716748492	1.3814282720833246	0.29934498486343203	0.8101873016602468	1.8082492691400096	0.2805393172193058	0.60352414260202	1.8440917941732131	0.3304838599136866	0.6636487748118032	1.8583797046509907	0.26990571415982084	0.8864022425412668	1.8579508612316489	0.08116860684875542	0.5436109627557341	0.942151923275604	0.0882266176158851	0.652001552484014	1.3729563380538126	0.08306507039849673	0.7785493766446685	1.8012172731117082	0.1192372798790163	0.6169950878703591	1.8602885051384468	0.05694515801037686	0.6402553160667228	1.8459060876299935	0.09007437946004848	0.8775944849366402	1.8502703735424026	0.19133021649698473	0.4007451021992619	0.3335270852132988	0.21267575379202164	0.289319474235617	0.10386656422420117	0.2103398733209523	0.2628305711572563	0.23218561714640135	0.36304619918072567	0.4447807687066542	0.43372922985132695	0.416534171238719	0.4056479894514217	0.7106140370432236	0.24735438954195713	0.27959581795812527	0.8685158843898958	0.14864949347575324	0.24575687192103762	0.9447780792970234	0.148369126844661	0.2600897291345732	0.9639400747706395	0.16664659371821575	0.3193682797581647	0.9853971374611553	0.042313991805476764	0.41979774829243954	0.4281087943186284	0.008575743578422949	0.37988596438127864	0.7120795064419727	0.13076064753551428	0.30233226345079717	0.8833550387889539	0.20811842881367004	0.2759738376109374	0.9543572881485602	0.19628542029678464	0.2693691739190281	0.976653121093515	0.17580788982215853	0.28045763959334136	0.9813997349605945
3	0.0508474576271186	0.3052092191140561	0.5527534317102274	0.9438969402908177	0.3114377813653455	0.6665528825290838	1.3807959256216837	0.299389224038167	0.8100058256879163	1.8086546186373438	0.2805195862280002	0.6034818045343779	1.8439944669409678	0.3309198514019466	0.6668486517808128	1.859926226396145	0.27009051121719363	0.8868223404241233	1.8586850518505875	0.08115603229760852	0.5435637621990903	0.9421272359456576	0.08764992434216642	0.6517184646756492	1.3752297999721546	0.08279425763704802	0.7769873740083446	1.8016593169667268	0.12127273928709585	0.617031915934008	1.8616426117650493	0.056649704281139614	0.6391636048622379	1.8444834870915452	0.08887024096795902	0.8766842278529796	1.8521153743772178	0.19132969565958216	0.4007031698205411	0.3335412365769862	0.21266219341834963	0.2893256261321603	0.10386301414135381	0.2103139206667862	0.26281147875460964	0.23218718869393906	0.36307081906602906	0.44464632316514285	0.43299914222811164	0.4165739868090985	0.4055261359258049	0.7099332661713065	0.24727816727610039	0.27978535086267026	0.8693225444112158	0.1480943016378395	0.2462396770872637	0.94562697199654	0.14793621478527166	0.26031810232359687	0.9650707410354709	0.16657968239766882	0.3191392587597806	0.9857459760006568	0.04230750416905258	0.4198014462398576	0.4281173222238855	0.008979022999365031	0.3776321272751705	0.7123672312382852	0.13015566270846085	0.3021321413059657	0.8832418393481701	0.2066012815046817	0.2762614142595463	0.9535563200285744	0.19560961337596514	0.2680347438026814	0.9765460491807502	0.17600509736033373	0.2813464784862438	0.9814941532523018
4	0.0677966101694915	0.3037248507051994	0.5565458448061267	0.9436588591313706	0.31157038810582555	0.665726229167094	1.3807112806068125	0.29937095276951264	0.8100325825417358	1.8086785506125502	0.2805289218401752	0.6034526149743037	1.843955859002453	0.33205352655491466	0.6715530699394987	1.861004954681322	0.2703897205042887	0.887786453842414	1.860028010136327	0.08113807811131694	0.5435523835067301	0.9421055277360951	0.08762012484841	0.6520698047500953	1.37758556783226	0.08222096200511701	0.7730201235438156	1.8001778789881175	0.12157504491332316	0.6168701239542662	1.8627208911035478	0.05637983480601547	0.6382484804146787	1.8426223287859815	0.08759592233091704	0.8761094149530118	1.8534097505454734	0.1913297777458092	0.4006730433484461	0.3335474268884102	0.2126444228340707	0.28934788518831395	0.10386315868575866	0.21026915038870925	0.2627937325398098	0.2321861533945935	0.3630919741471764	0.4445366299267098	0.43243146956044476	0.41659704978274464	0.40545554803540557	0.709421964007725	0.24725514155737044	0.2798039078868776	0.8696150407836793	0.14812481418579382	0.247912845284952	0.9460013554006909	0.14823356575657567	0.26072890449406344	0.9654848259832746	0.16666542690117173	0.3187568252517324	0.9856910923070683	0.04224640099638468	0.41989802214159694	0.42849485262228365	0.008570010087131555	0.3758973318101844	0.7122580650283443	0.12882706241434394	0.3021349334321174	0.8830991791319027	0.2058543902997795	0.2766946231118818	0.9529098991977589	0.1957393645808168	0.2684531223050479	0.9765989701981701	0.17638586534227352	0.28338535131976467	0.9817156213145428
